<?xml version="1.0" standalone="no"?> 
<!DOCTYPE svg PUBLIC "-//W3C//DTD SVG 1.1//EN" 
  "http://www.w3.org/Graphics/SVG/1.1/DTD/svg11.dtd">
<svg id="xbox_vis_svg" width="100%" height="100%" viewBox="0 0 1024 768" xmlns="http://www.w3.org/2000/svg" version="1.1">
    <path id="left_trig" fill="#444" stroke="#222" stroke-width="6.0" stroke-linejoin="round" stroke-linecap="butt" d="m292 10l-15 0s-20 0 -20 20l0 50l55 0l0 -50s0 -20 -20 -20z" fill-rule="nonzero"></path>
    <path id="right_trig" fill="#444" stroke="#222" stroke-width="6.0" stroke-linejoin="round" stroke-linecap="butt" d="m683 10l-15 0s-20 0 -20 20l0 50l55 0l0 -50s0 -20 -20 -20z" fill-rule="nonzero"></path>
    <path id="left_bump" fill="#888" stroke="#666" stroke-width="6.0" stroke-linejoin="round" stroke-linecap="butt" d="m272 33l-60 0s -30 0 -30 30l0 50l120 0l0 -50s0 -30 -30 -30z" fill-rule="nonzero"></path>
    <path id="right_bump" fill="#888" stroke="#666" stroke-width="6.0" stroke-linejoin="round" stroke-linecap="butt" d="m748 33l-60 0s -30 0 -30 30l0 50l120 0l0 -50s0 -30 -30 -30z" fill-rule="nonzero"></path>
    <path id="controllerBodyPlate" fill="#ddd" stroke="#222" stroke-width="10px"  d="m366.75067 110.485565l-6.9868774 -7.104988l-7.934387 -7.104988l-9.236237 -7.577423l-9.711273 -6.278221l-10.54068 -7.223091l-9.94751 -6.0393753l-9.118103 -6.1574783l-10.065643 -5.566929l-13.498688 -5.5643044l-8.527557 -2.3674545l-9.711273 -2.1338577l-8.40683 -0.7086601l-11.131226 0.11810684l-7.341217 1.0656166l-11.724411 3.9081383l-8.527557 3.0787392l-7.934372 4.380577l-4.973755 3.1968536l-9.236221 5.80315l-7.5774384 6.0393677l-8.409439 7.343834l-6.157486 6.3936996l-7.934387 8.288712l-4.2624664 4.265091l-11.960617 15.039375l-7.698166 10.301834l-5.3280945 9.829399l-5.091858 10.774277l-3.7900238 7.5800476l-10.776901 25.461945l-5.803154 14.682419l-3.3149567 9.118103l-4.2624664 15.039368l-8.527565 24.278229l-2.9606247 12.551178l-3.5511856 12.553818l-2.370079 11.131226l-4.4986877 18.35431l-3.0787354 13.262482l-2.0131226 12.08136l-5.9212646 31.380585l-1.5406799 13.380585l-3.3149605 26.173218l-2.0131226 19.30185l-1.5406837 18.0l-1.4199486 16.10498l-2.0131226 22.026245l-1.1837273 15.750641l-0.593174 10.419952l-1.3018379 29.249329l-0.47244263 9.356995l0.5905533 19.656128l0.47506332 14.3307495l0.5905533 9.829407l1.1837273 12.6692505l3.0787392 19.065613l2.6063004 12.078735l2.2493439 6.5144653l6.7506523 14.685059l5.4461975 9.0l5.6850357 5.918579l9.0 7.816284l5.9212646 3.671936l6.275589 2.6063232l6.6325455 1.3018188l7.3412094 0l13.973747 -1.4226074l10.065628 -1.4199219l15.396317 -2.0131226l13.026245 -2.8425293l12.908142 -6.9868774l13.144348 -8.881897l12.671921 -7.816284l9.236221 -6.9868774l5.8031464 -5.56427l13.026245 -12.790039l10.183731 -9.711304l11.7217865 -10.065613l12.317596 -9.708618l24.393677 -20.606323l14.803162 -12.078735l21.314972 -12.314941l42.514435 -13.144348l22.61679 -2.8425293l37.304474 -2.1312256l40.61679 -0.7113037l25.69815 0.11810303l52.223083 0.23620605l38.131226 3.3149414l19.776917 1.4226074l31.144348 11.013123l18.5932 12.908142l22.973755 12.433044l21.196838 17.64569l22.737549 22.026245l15.51178 15.393677l13.026245 16.698181l15.986877 14.446167l5.5669556 4.2651367l9.593201 6.747986l9.472412 6.2782593l5.6850586 2.3674316l14.091858 1.3018188l7.6954956 -0.94750977l1.8950195 -0.23620605l15.986877 2.4882202l8.763794 0.70861816l8.409485 -1.892334l9.354309 -2.8425293l5.8031616 -4.501343l8.288696 -7.816284l5.8031616 -4.973755l3.1968384 -6.0393677l4.737549 -9.590515l4.973755 -10.658813l2.7217407 -11.724426l2.3701172 -11.249329l3.0787354 -23.091858l0.82940674 -19.301819l1.0656128 -19.422607l-0.94750977 -27.708618l-0.94750977 -16.343842l-0.82940674 -14.921265l-2.9606323 -33.1575l-2.0131226 -22.61679l-2.0131226 -21.553802l-1.7769165 -16.223083l-3.3149414 -25.223114l-2.1312256 -14.448822l-12.196838 -61.69815l-4.855652 -19.774292l-7.1049805 -26.527542l-5.6850586 -17.524933l-9.118103 -27.829407l-3.908142 -10.065613l-15.986877 -36.82939l-11.367432 -21.55381l-3.199524 -5.682419l-16.223083 -20.606293l-16.577393 -16.45932l-14.566956 -12.435699l-7.934387 -5.6850357l-8.881897 -5.4461937l-10.538025 -6.157482l-10.304504 -3.9081345l-9.94751 -2.6063004l-17.05249 -0.47244263l-8.406799 0.71128845l-11.724426 2.603672l-4.973755 1.3044624l-18.829407 7.577427l-9.826721 6.3937035l-18.356995 12.317581l-14.921265 9.829399l-6.9868774 4.973755l-10.419922 9.472443l-8.406799 8.170601l-25.698181 3.9081345l-18.475098 2.2493439l-20.839844 1.8950119l-17.527588 1.3044662l-19.30185 0.47244263l-13.026245 0.35432434l-20.724396 -0.23621368l-15.868774 -0.47244263l-26.288696 -2.9606323l-34.69818 -4.619423z"></path>
    <path id="controllerBasePlate" fill="#777" stroke="#222" stroke-width="10px" d="m136.41995 668.0131l-1.5380554 -5.209961l-0.118118286 -7.2230835l1.3018341 -14.2126465l1.7769012 -8.643005l4.1443634 -14.3307495l4.7375336 -10.774231l4.616791 -9.0l5.8031616 -9.238892l9.59317 -10.301819l9.354324 -10.658813l11.367462 -9.94751l8.173233 -6.747986l16.10498 -11.48822l11.367447 -7.2230835l13.855652 -8.763794l13.498688 -6.2755737l11.48819 -5.091858l14.803162 -6.6325684l12.078735 -4.734894l19.065613 -6.2782288l16.10498 -3.7900085l11.606293 -1.5380554l19.774292 -2.3674622l20.48819 -0.94750977l15.750641 -1.4225769l22.61679 0.94750977l24.750671 0.82940674l44.64566 0.47244263l38.367462 -0.59054565l24.868774 -0.23623657l10.89502 -0.47506714l13.734863 -0.59054565l21.317627 1.5380554l18.35431 0.59317017l15.514465 2.3674622l6.2755737 0.94750977l8.645691 2.1312256l12.6692505 3.4356995l14.091858 4.7349243l13.38324 5.4487915l12.196838 5.2099915l16.341187 7.1049805l13.501343 6.8687744l12.196838 6.8687744l9.829407 5.682373l8.170593 6.2782593l11.131226 8.406799l7.816284 6.8687744l13.144348 10.658813l8.288696 9.354309l8.291382 10.419922l3.0787354 5.3307495l9.94751 15.986877l6.9868774 22.380554l0.4724121 6.7506714l2.0131226 17.170593l0.35699463 6.5144653l-0.5932007 1.6561279l-2.7244263 4.144348l-6.7506714 1.8950195l-7.6954956 -0.11810303l-11.724426 -1.3018188l-12.671936 -4.973755l-15.275574 -8.763794l-15.986877 -11.131226l-15.157471 -13.144348l-21.433044 -21.908142l-13.147034 -12.078735l-15.986877 -15.396362l-26.170593 -20.960632l-33.629883 -19.774231l-22.855652 -7.934387l-20.724426 -3.671936l-31.380554 -3.671936l-17.64569 -1.6561279l-36.0 -0.94750977l-22.380585 -0.47509766l-49.146973 1.7769165l-17.170593 1.5407104l-41.56433 4.6167603l-10.894989 3.0787354l-18.236237 5.5669556l-12.5538025 6.2755737l-15.514435 10.183716l-18.0 11.48822l-11.367462 9.0l-13.616791 11.367432l-27.0 25.461975l-14.685043 15.157471l-8.409439 8.645691l-6.157486 5.328064l-4.8556366 2.7244263l-15.748032 11.013123l-14.921265 8.761108l-13.501312 5.091858l-15.157486 1.0682983l-7.5800476 -1.1864014z"></path>  
    <path id="light1" class="playerLight" d="M490,200 m -60,-5 s 0 -55 55 -55" stroke="#090" stroke-width="7" />
    <path id="light2" class="playerLight" d="M490,200 m 60 -5 s 0 -55 -55 -55" stroke="#090" stroke-width="7" />
    <path id="light3" class="playerLight" d="M490,200 m 60 5 s 0 55 -55 55" stroke="#090" stroke-width="7" />
    <path id="light4" class="playerLight" d="M490,200 m -60 5 s 0 55 55 55" stroke="#090" stroke-width="7" />
    <g id="buttons"></g>
    <path id="dpad" 
    d="M360,370 m -55,0 l 0,20 l 35,0 l 0,35 l 40,0 l 0,-35 l 35,0 l 0,-40 l -35,0 l 0,-35 l -40,0 l 0,35 l -35,0 z" 
    fill="#444" stroke="#222" stroke-width="7" stroke-linejoin="round" />
    <g id="X">
      <path class="X" d="M490 200m-28 28c10 -30 40 -56 56 -56z" stroke="#0a0" stroke-width="0" fill="#0a0"/>
      <path class="X" d="M490 200m 28 28c-10 -30 -40 -56 -56 -56z" stroke="#0a0" stroke-width="0" fill="#0a0"/>
    </g>
</svg>
